<svg xmlns="http://www.w3.org/2000/svg">
  
  <symbol id="logo" viewBox="0 0 56 40">
    <path d="M12.5753 18.552C11.5673 18.552 10.6793 18.376 9.91133 18.024C9.14335 17.672 8.55135 17.184 8.13535 16.56C7.71935 15.92 7.51135 15.184 7.51135 14.352C7.51135 13.648 7.65534 13.008 7.94335 12.432C8.24734 11.856 8.64734 11.4 9.14334 11.064C9.65534 10.728 10.2153 10.56 10.8233 10.56C11.3833 10.56 11.8553 10.704 12.2393 10.992C12.6233 11.264 12.8633 11.648 12.9593 12.144C12.1273 12.144 11.4633 12.368 10.9673 12.816C10.4713 13.248 10.2233 13.84 10.2233 14.592C10.2233 15.28 10.4313 15.832 10.8473 16.248C11.2633 16.664 11.8153 16.872 12.5033 16.872C13.3513 16.872 14.0473 16.592 14.5913 16.032C15.1513 15.456 15.4313 14.736 15.4313 13.872C15.4313 13.12 15.2233 12.408 14.8073 11.736C14.3913 11.064 13.7673 10.248 12.9353 9.288C12.0713 8.296 11.4153 7.448 10.9673 6.744C10.5353 6.024 10.3193 5.24 10.3193 4.392C10.3193 3.56 10.5513 2.816 11.0153 2.16C11.4793 1.488 12.1193 0.960001 12.9353 0.576001C13.7513 0.192001 14.6713 0 15.6953 0C16.9913 0 18.0233 0.304001 18.7913 0.912001C19.5753 1.52 19.9673 2.336 19.9673 3.36C19.9673 4.032 19.7993 4.576 19.4633 4.992C19.1273 5.408 18.6873 5.616 18.1433 5.616C17.5353 5.616 17.0473 5.368 16.6793 4.872C16.9833 4.648 17.2233 4.352 17.3993 3.984C17.5753 3.616 17.6633 3.232 17.6633 2.832C17.6633 2.32 17.5113 1.912 17.2073 1.608C16.9033 1.304 16.4873 1.152 15.9593 1.152C15.3193 1.152 14.7913 1.384 14.3753 1.848C13.9753 2.296 13.7753 2.872 13.7753 3.576C13.7753 4.216 13.9593 4.816 14.3273 5.376C14.6953 5.92 15.2713 6.624 16.0553 7.488C16.6953 8.176 17.2073 8.768 17.5913 9.264C17.9913 9.76 18.3273 10.336 18.5993 10.992C18.8873 11.632 19.0313 12.328 19.0313 13.08C19.0313 14.104 18.7433 15.032 18.1673 15.864C17.6073 16.696 16.8313 17.352 15.8393 17.832C14.8633 18.312 13.7753 18.552 12.5753 18.552ZM22.7588 18.264C21.9908 18.264 21.3668 18.024 20.8868 17.544C20.4228 17.064 20.1908 16.344 20.1908 15.384C20.1908 14.984 20.2548 14.464 20.3828 13.824L22.0148 6.12H25.4708L23.7428 14.28C23.6948 14.52 23.6708 14.744 23.6708 14.952C23.6708 15.608 23.9108 15.936 24.3908 15.936C24.8388 15.936 25.2228 15.752 25.5428 15.384C25.8628 15 26.1188 14.48 26.3108 13.824L27.9428 6.12H31.3988L29.6708 14.28C29.6068 14.52 29.5748 14.776 29.5748 15.048C29.5748 15.368 29.6468 15.6 29.7908 15.744C29.9508 15.872 30.2068 15.936 30.5588 15.936C31.0068 15.936 31.3908 15.744 31.7108 15.36C32.0468 14.976 32.3108 14.464 32.5028 13.824H33.5108C32.9188 15.552 32.1828 16.728 31.3028 17.352C30.4388 17.96 29.5668 18.264 28.6868 18.264C27.9988 18.264 27.4468 18.072 27.0308 17.688C26.6308 17.304 26.3908 16.736 26.3108 15.984C25.7668 16.864 25.1908 17.464 24.5828 17.784C23.9908 18.104 23.3828 18.264 22.7588 18.264ZM34.132 6.12H37.588L37.276 7.608C37.82 7.128 38.308 6.76 38.74 6.504C39.188 6.248 39.668 6.12 40.18 6.12C40.692 6.12 41.092 6.296 41.38 6.648C41.684 7 41.836 7.424 41.836 7.92C41.836 8.384 41.684 8.792 41.38 9.144C41.076 9.496 40.652 9.672 40.108 9.672C39.756 9.672 39.516 9.592 39.388 9.432C39.276 9.256 39.188 9.008 39.124 8.688C39.076 8.48 39.028 8.328 38.98 8.232C38.932 8.136 38.844 8.088 38.716 8.088C38.38 8.088 38.092 8.16 37.852 8.304C37.628 8.432 37.332 8.664 36.964 9L35.044 18.12H31.588L34.132 6.12ZM39.3634 24.12C38.6114 24.12 37.9554 23.872 37.3954 23.376C36.8194 22.896 36.5314 22.28 36.5314 21.528C36.5314 20.84 36.7074 20.272 37.0594 19.824C37.4114 19.376 37.8674 19.016 38.4274 18.744C38.9874 18.488 39.7314 18.216 40.6594 17.928L43.5634 4.224C43.8834 2.688 44.4434 1.624 45.2434 1.032C46.0594 0.440001 46.9554 0.144001 47.9314 0.144001C48.6834 0.144001 49.3394 0.392001 49.8994 0.888001C50.4754 1.368 50.7634 1.984 50.7634 2.736C50.7634 3.104 50.7394 3.432 50.6914 3.72H49.5634C49.5954 3.368 49.6114 3.152 49.6114 3.072C49.6114 2.816 49.5234 2.616 49.3474 2.472C49.1714 2.328 48.9554 2.256 48.6994 2.256C48.3634 2.256 48.0354 2.408 47.7154 2.712C47.3954 3 47.1634 3.504 47.0194 4.224L46.6114 6.12H48.3634L48.1954 7.08H46.4194L43.6594 20.04C43.3394 21.592 42.7874 22.656 42.0034 23.232C41.2194 23.824 40.3394 24.12 39.3634 24.12ZM38.8114 21.984C39.4514 21.984 39.9074 21.36 40.1794 20.112L40.4914 18.72C39.6434 19.008 38.9954 19.336 38.5474 19.704C38.0834 20.088 37.8514 20.584 37.8514 21.192C37.8514 21.384 37.9474 21.56 38.1394 21.72C38.3314 21.896 38.5554 21.984 38.8114 21.984ZM3.36 39.264C2.272 39.264 1.44 39 0.864005 38.472C0.288 37.928 0 37.168 0 36.192C0 35.712 0.056 35.256 0.168 34.824L2.73601 22.8L6.28801 22.32L5.13601 27.72C5.58401 27.448 5.952 27.272 6.24001 27.192C6.52801 27.096 6.81601 27.048 7.10401 27.048C8.99201 27.048 9.93603 28.416 9.93603 31.152C9.93603 32.256 9.72001 33.44 9.288 34.704C8.872 35.952 8.168 37.024 7.17601 37.92C6.20001 38.816 4.928 39.264 3.36 39.264ZM4.70401 36.936C5.20001 36.936 5.66401 36.632 6.09601 36.024C6.52801 35.4 6.872 34.632 7.12801 33.72C7.38401 32.792 7.51201 31.904 7.51201 31.056C7.51201 30.416 7.40001 29.872 7.17601 29.424C6.95201 28.976 6.64001 28.752 6.24001 28.752C6.00001 28.752 5.728 28.792 5.42401 28.872C5.136 28.936 4.93601 29.04 4.82401 29.184L3.504 35.28C3.456 35.472 3.432 35.656 3.432 35.832C3.432 36.568 3.85601 36.936 4.70401 36.936ZM14.336 39.216C13.152 39.216 12.216 38.912 11.528 38.304C10.84 37.696 10.496 36.736 10.496 35.424C10.496 34.336 10.72 33.128 11.168 31.8C11.616 30.472 12.336 29.328 13.328 28.368C14.32 27.392 15.568 26.904 17.072 26.904C19.12 26.904 20.144 28.184 20.144 30.744V30.768C20.192 30.784 20.28 30.792 20.408 30.792C20.936 30.792 21.544 30.656 22.232 30.384C22.92 30.096 23.544 29.752 24.104 29.352L24.32 30C23.856 30.496 23.248 30.92 22.496 31.272C21.76 31.608 20.952 31.848 20.072 31.992C19.944 33.448 19.616 34.72 19.088 35.808C18.56 36.896 17.88 37.736 17.048 38.328C16.216 38.92 15.312 39.216 14.336 39.216ZM15.296 37.056C15.68 37.056 16.064 36.84 16.448 36.408C16.832 35.96 17.168 35.36 17.456 34.608C17.744 33.84 17.952 32.992 18.08 32.064C17.648 31.968 17.432 31.632 17.432 31.056C17.432 30.4 17.68 29.968 18.176 29.76C18.144 29.232 18.064 28.872 17.936 28.68C17.808 28.472 17.584 28.368 17.264 28.368C16.736 28.368 16.224 28.752 15.728 29.52C15.232 30.288 14.832 31.208 14.528 32.28C14.224 33.352 14.072 34.296 14.072 35.112C14.072 35.88 14.16 36.4 14.336 36.672C14.512 36.928 14.832 37.056 15.296 37.056ZM24.2589 39.264C23.3469 39.264 22.5869 38.952 21.9789 38.328C21.3709 37.704 21.0669 36.728 21.0669 35.4C21.0669 34.216 21.2989 32.976 21.7629 31.68C22.2429 30.368 22.9469 29.264 23.8749 28.368C24.8189 27.456 25.9389 27 27.2349 27C27.8909 27 28.3789 27.112 28.6989 27.336C29.0189 27.56 29.1789 27.856 29.1789 28.224V28.392L29.4429 27.12H32.8989L31.1709 35.28C31.1069 35.52 31.0749 35.776 31.0749 36.048C31.0749 36.736 31.4029 37.08 32.0589 37.08C32.5069 37.08 32.8909 36.872 33.2109 36.456C33.5469 36.04 33.8109 35.496 34.0029 34.824H35.0109C34.4189 36.552 33.6829 37.728 32.8029 38.352C31.9389 38.96 31.0669 39.264 30.1869 39.264C29.5149 39.264 28.9709 39.08 28.5549 38.712C28.1549 38.328 27.9149 37.776 27.8349 37.056C27.3709 37.712 26.8509 38.248 26.2749 38.664C25.7149 39.064 25.0429 39.264 24.2589 39.264ZM25.8189 36.936C26.2189 36.936 26.6109 36.752 26.9949 36.384C27.3949 36 27.6669 35.48 27.8109 34.824L28.9629 29.4C28.9629 29.192 28.8829 28.992 28.7229 28.8C28.5629 28.592 28.3149 28.488 27.9789 28.488C27.3389 28.488 26.7629 28.864 26.2509 29.616C25.7389 30.352 25.3389 31.248 25.0509 32.304C24.7629 33.344 24.6189 34.264 24.6189 35.064C24.6189 35.864 24.7309 36.376 24.9549 36.6C25.1949 36.824 25.4829 36.936 25.8189 36.936ZM35.6437 27.12H39.0997L38.7877 28.608C39.3317 28.128 39.8197 27.76 40.2517 27.504C40.6997 27.248 41.1797 27.12 41.6917 27.12C42.2037 27.12 42.6037 27.296 42.8917 27.648C43.1957 28 43.3477 28.424 43.3477 28.92C43.3477 29.384 43.1957 29.792 42.8917 30.144C42.5877 30.496 42.1637 30.672 41.6197 30.672C41.2677 30.672 41.0277 30.592 40.8997 30.432C40.7877 30.256 40.6997 30.008 40.6357 29.688C40.5877 29.48 40.5397 29.328 40.4917 29.232C40.4437 29.136 40.3557 29.088 40.2277 29.088C39.8917 29.088 39.6037 29.16 39.3637 29.304C39.1397 29.432 38.8437 29.664 38.4757 30L36.5557 39.12H33.0997L35.6437 27.12ZM45.9152 39.264C45.0032 39.264 44.2432 38.952 43.6352 38.328C43.0272 37.704 42.7232 36.728 42.7232 35.4C42.7232 34.216 42.9552 32.976 43.4192 31.68C43.8992 30.368 44.6032 29.264 45.5312 28.368C46.4752 27.456 47.5952 27 48.8912 27C49.5472 27 50.0352 27.112 50.3552 27.336C50.6752 27.56 50.8352 27.856 50.8352 28.224V28.32L52.0112 22.8L55.5632 22.32L52.8032 35.28C52.7392 35.52 52.7072 35.752 52.7072 35.976C52.7072 36.616 53.0352 36.936 53.6912 36.936C53.9792 36.936 54.2352 36.888 54.4592 36.792C54.3952 37.592 54.1072 38.208 53.5952 38.64C53.0992 39.056 52.5072 39.264 51.8192 39.264C51.1792 39.264 50.6352 39.104 50.1872 38.784C49.7552 38.448 49.4672 37.944 49.3232 37.272C48.3632 38.6 47.2272 39.264 45.9152 39.264ZM47.4752 36.936C47.8272 36.936 48.1792 36.784 48.5312 36.48C48.8992 36.176 49.1712 35.752 49.3472 35.208L49.4432 34.824L50.6192 29.328C50.4752 28.768 50.1472 28.488 49.6352 28.488C48.9952 28.488 48.4192 28.864 47.9072 29.616C47.3952 30.352 46.9952 31.248 46.7072 32.304C46.4192 33.344 46.2752 34.264 46.2752 35.064C46.2752 35.864 46.3872 36.376 46.6112 36.6C46.8512 36.824 47.1392 36.936 47.4752 36.936Z" fill="white"/>
  </symbol>

  <symbol id="phone" viewBox="0 0 24 24">
    <g clip-path="url(#clip0_2_1213)">
      <path d="M23.9481 18.5956C23.8802 18.3911 23.4483 18.0898 22.6528 17.6924C22.4372 17.5671 22.1301 17.3969 21.7328 17.181C21.335 16.965 20.974 16.7661 20.6504 16.5842C20.3261 16.4024 20.0222 16.2263 19.7384 16.0561C19.693 16.022 19.551 15.9227 19.3123 15.7576C19.0735 15.5929 18.872 15.4707 18.707 15.391C18.5422 15.3118 18.3802 15.2719 18.2211 15.2719C17.9939 15.2719 17.7101 15.4339 17.3693 15.7576C17.0285 16.0816 16.7159 16.4336 16.432 16.8147C16.148 17.1955 15.8468 17.5475 15.5289 17.8714C15.2106 18.1954 14.949 18.3572 14.7447 18.3572C14.6422 18.3572 14.5143 18.3286 14.361 18.2722C14.2078 18.2154 14.0913 18.1668 14.0113 18.1276C13.932 18.0875 13.7959 18.0082 13.6026 17.8885C13.409 17.7692 13.3013 17.7038 13.2786 17.6924C11.7218 16.8286 10.3867 15.8399 9.273 14.7266C8.15962 13.6127 7.17084 12.2777 6.30725 10.7208C6.29591 10.6981 6.23042 10.5901 6.11119 10.397C5.99179 10.2038 5.91221 10.0676 5.87245 9.98781C5.83268 9.90835 5.78439 9.79181 5.72767 9.63844C5.67095 9.48506 5.64248 9.3573 5.64248 9.25491C5.64248 9.05049 5.80445 8.789 6.12833 8.47079C6.45215 8.15276 6.80451 7.8515 7.18505 7.56762C7.56589 7.28374 7.91789 6.97114 8.24183 6.63036C8.56565 6.2894 8.72756 6.00546 8.72756 5.77824C8.72756 5.61925 8.6878 5.45716 8.60834 5.29244C8.52882 5.12737 8.40667 4.92594 8.24183 4.68719C8.07693 4.44856 7.97753 4.30665 7.94338 4.26098C7.77311 3.97709 7.59717 3.67315 7.41514 3.34927C7.23311 3.02545 7.03442 2.66449 6.81842 2.26682C6.6026 1.86932 6.43227 1.5624 6.30713 1.34651C5.90964 0.551227 5.60856 0.119224 5.40397 0.0512838C5.32438 0.0171941 5.20498 0 5.04605 0C4.73907 0 4.33859 0.0567167 3.84432 0.170508C3.34987 0.284121 2.96079 0.403286 2.67667 0.52848C2.10849 0.766989 1.50628 1.46013 0.869857 2.60765C0.290332 3.6756 0.000598907 4.73262 0.000598907 5.77794C0.000598907 6.08451 0.0204796 6.38278 0.060241 6.67281C0.100002 6.96254 0.171047 7.28929 0.273436 7.65299C0.375645 8.01658 0.458094 8.28667 0.520422 8.46255C0.58281 8.63855 0.699289 8.95384 0.869797 9.40852C1.04007 9.86309 1.14245 10.1414 1.17654 10.2436C1.57422 11.3573 2.0458 12.3515 2.59118 13.2266C3.4885 14.681 4.71304 16.1841 6.26409 17.7353C7.8152 19.2864 9.31801 20.5108 10.7726 21.4085C11.6475 21.9538 12.6421 22.4254 13.7556 22.8233C13.8579 22.8572 14.1362 22.9594 14.5906 23.1303C15.0451 23.3007 15.3605 23.4171 15.5365 23.4796C15.7126 23.5422 15.9828 23.6247 16.346 23.7271C16.7101 23.8295 17.0366 23.9005 17.3263 23.9406C17.6162 23.9798 17.9145 24.0001 18.2212 24.0001C19.2664 24.0001 20.3235 23.7101 21.3916 23.1307C22.539 22.4945 23.232 21.8922 23.4706 21.3236C23.5961 21.0397 23.715 20.6506 23.8286 20.1561C23.9426 19.6619 23.9992 19.2615 23.9992 18.9545C23.9995 18.795 23.9824 18.6759 23.9481 18.5956Z"/>
    </g>
    <defs>
      <clipPath id="clip0_2_1213">
        <rect width="24" height="24"/>
      </clipPath>
    </defs>
  </symbol>

  <symbol id="board" viewBox="0 0 41 41">
    <path d="M37.5485 3.45152C37.3352 3.23814 37.0379 3.13037 36.7376 3.15814C36.6123 3.16952 33.6209 3.45402 29.5183 4.83108C16.1663 8.94322 7.32974 21.8899 3.22065 31.2558C2.962 31.8743 3.48458 32.7021 4.26676 32.6337L8.80535 32.1922L8.36386 36.7304C8.31549 37.3828 8.94883 38.0699 9.74184 37.7764C26.0466 30.3472 35.9919 18.976 37.8419 4.26228C37.8694 3.96186 37.7619 3.66476 37.5485 3.45152ZM24.4105 25.7881C22.6089 27.4277 20.8329 28.8372 19.1913 30.0245V12.7211C20.9122 11.3108 22.6957 10.1677 24.4105 9.24486V25.7881ZM14.4936 33.0991C12.8802 34.0471 11.5183 34.7389 10.5551 35.1956L10.9478 31.1597C11.006 30.6346 10.5202 29.9703 9.83797 30.05L5.8034 30.4424C7.16641 27.5507 10.8373 20.8176 17.159 14.5514V31.4322C16.1849 32.0781 15.286 32.6336 14.4936 33.0991ZM34.2232 10.8908C33.0298 14.4275 30.7123 19.5335 26.4428 23.8442V8.2325C29.2239 6.88932 33.4729 5.68533 35.6337 5.36608C35.4266 6.57955 35.0109 8.55616 34.2232 10.8908Z" fill="white"/>
  </symbol>

  <symbol id="materials" viewBox="0 0 41 41">
    <g clip-path="url(#clip0_22150_180)">
      <path d="M36.8298 15.4181H29.5562C29.5569 15.4117 29.5579 15.4054 29.5586 15.3991C30.405 14.6708 31.0815 13.8061 31.5729 12.8236C31.7304 12.5085 31.7136 12.1343 31.5284 11.8347C31.3432 11.535 31.016 11.3526 30.6638 11.3526H29.0949C28.7545 10.3896 28.2576 9.50036 27.6109 8.69742C27.6938 7.58516 27.5607 6.4969 27.2137 5.45599C27.1023 5.12181 26.8258 4.86914 26.483 4.78823C26.1401 4.70726 25.7799 4.80971 25.5308 5.05872L24.4191 6.17037C23.5006 5.73129 22.5227 5.45416 21.4992 5.34311C20.7321 4.43955 19.848 3.72436 18.9218 3.26116C18.6067 3.10362 18.2326 3.12043 17.9328 3.30561C17.6333 3.49079 17.4509 3.81793 17.4509 4.17021V5.80684C16.4879 6.14719 15.5986 6.6442 14.7957 7.29082C13.6836 7.20795 12.5951 7.3411 11.5544 7.68809C11.2202 7.79948 10.9675 8.07601 10.8866 8.4188C10.8057 8.76159 10.908 9.12192 11.1571 9.37094L12.2686 10.4824C11.8292 11.4016 11.552 12.3802 11.4411 13.4045C10.7601 13.9905 10.1893 14.665 9.73623 15.4182H4.17022C3.6089 15.4182 3.15384 15.8732 3.15384 16.4345V20.5001C3.15384 21.0614 3.6089 21.5164 4.17022 21.5164H5.25435V36.8298C5.25435 37.3911 5.70942 37.8462 6.27073 37.8462H10.3362C10.8975 37.8462 11.3526 37.3911 11.3526 36.8298V33.3847L20.5 29.7258L29.6474 33.3847V36.8298C29.6474 37.3911 30.1024 37.8461 30.6638 37.8461H34.7293C35.2906 37.8461 35.7456 37.3911 35.7456 36.8298V21.5164H36.8298C37.3911 21.5164 37.8461 21.0613 37.8461 20.5V16.4345C37.8461 15.8732 37.3911 15.4181 36.8298 15.4181V15.4181ZM13.0399 14.7226C13.2717 14.5431 13.4147 14.2723 13.4322 13.9796C13.5 12.8451 13.8237 11.7792 14.3944 10.8115C14.6298 10.4123 14.5652 9.90433 14.2376 9.57658L13.9639 9.30291C14.3037 9.29247 14.6479 9.30921 14.9952 9.35318C15.286 9.39004 15.5787 9.29952 15.798 9.10471C16.6472 8.35029 17.631 7.82455 18.722 7.542C19.1704 7.426 19.4836 7.02141 19.4836 6.55822V6.15607C19.7255 6.39404 19.9585 6.65687 20.179 6.94173C20.3585 7.17353 20.6293 7.3165 20.922 7.33398C22.0564 7.40174 23.1223 7.72549 24.0901 8.29615C24.4894 8.53155 24.9973 8.46704 25.325 8.13936L25.5988 7.86562C25.6092 8.20542 25.5925 8.5497 25.5485 8.89697C25.5117 9.18785 25.6022 9.4805 25.797 9.69977C26.5514 10.5491 27.0772 11.5328 27.3597 12.6238C27.4758 13.0722 27.8804 13.3854 28.3436 13.3854H28.7272C28.4937 13.6338 28.2377 13.8659 27.9602 14.0808C27.7284 14.2603 27.5854 14.5311 27.5679 14.8238C27.556 15.023 27.5354 15.2214 27.5072 15.4182H23.3743C23.4871 15.1 23.5491 14.7581 23.5491 14.4018C23.5491 12.7205 22.1813 11.3527 20.5 11.3527C18.8187 11.3527 17.4509 12.7205 17.4509 14.4018C17.4509 14.7581 17.5129 15.1 17.6257 15.4182H12.2733C12.5069 15.1698 12.7624 14.9375 13.0399 14.7226ZM21.5164 14.4017C21.5164 14.9622 21.0604 15.4181 20.5 15.4181C19.9396 15.4181 19.4836 14.9622 19.4836 14.4017C19.4836 13.8413 19.9396 13.3854 20.5 13.3854C21.0604 13.3854 21.5164 13.8413 21.5164 14.4017ZM9.31985 35.8134H7.2871V21.5164H9.31985C9.31985 21.5094 9.31992 31.5516 9.31985 35.8134ZM11.3526 31.1953V26.0667L17.7633 28.631L11.3526 31.1953ZM29.6474 31.1953L23.2367 28.631L29.6474 26.0667V31.1953ZM29.6474 23.8774L20.5 27.5364L11.3526 23.8774V21.5164H29.6474V23.8774ZM33.7129 35.8134H31.6801C31.6801 34.0105 31.6801 23.6905 31.6801 21.5164H33.7129V35.8134ZM35.8134 19.4836H5.18659V17.4509H35.8134V19.4836Z" fill="white"/>
    </g>
    <defs>
      <clipPath id="clip0_22150_180">
        <rect width="34.6923" height="34.6923" fill="white" transform="translate(3.15384 3.15384)"/>
      </clipPath>
    </defs>
  </symbol>

  <symbol id="delivery" viewBox="0 0 41 41">
    <path d="M29.3553 23.9785C26.944 23.9785 24.9823 25.9402 24.9823 28.3515C24.9823 30.7628 26.944 32.7245 29.3553 32.7245C31.767 32.7245 33.7283 30.7628 33.7283 28.3515C33.7283 25.9402 31.7666 23.9785 29.3553 23.9785ZM29.3553 30.538C28.1495 30.538 27.1688 29.5573 27.1688 28.3515C27.1688 27.1456 28.1495 26.165 29.3553 26.165C30.5611 26.165 31.5418 27.1456 31.5418 28.3515C31.5418 29.5574 30.5611 30.538 29.3553 30.538Z" fill="white"/>
    <path d="M14.4143 23.9785C12.003 23.9785 10.0413 25.9402 10.0413 28.3515C10.0413 30.7628 12.003 32.7245 14.4143 32.7245C16.8256 32.7245 18.7873 30.7628 18.7873 28.3515C18.7873 25.9402 16.8256 23.9785 14.4143 23.9785ZM14.4143 30.538C13.2085 30.538 12.2278 29.5573 12.2278 28.3515C12.2278 27.1456 13.2085 26.165 14.4143 26.165C15.6198 26.165 16.6008 27.1456 16.6008 28.3515C16.6008 29.5574 15.6201 30.538 14.4143 30.538Z" fill="white"/>
    <path d="M32.3001 11.4616C32.1143 11.0924 31.7364 10.8596 31.3231 10.8596H25.5654V13.0461H30.6489L33.6258 18.9671L35.5798 17.9846L32.3001 11.4616Z" fill="white"/>
    <path d="M26.0756 27.2947H17.8034V29.4812H26.0756V27.2947Z" fill="white"/>
    <path d="M11.1345 27.2947H7.34464C6.74078 27.2947 6.25143 27.7841 6.25143 28.3879C6.25143 28.9918 6.74084 29.4811 7.34464 29.4811H11.1346C11.7384 29.4811 12.2278 28.9917 12.2278 28.3879C12.2278 27.7841 11.7384 27.2947 11.1345 27.2947Z" fill="white"/>
    <path d="M37.6166 20.6113L35.4662 17.8417C35.2596 17.575 34.9407 17.419 34.6029 17.419H26.6586V9.76628C26.6586 9.16242 26.1692 8.67307 25.5654 8.67307H7.34464C6.74078 8.67307 6.25143 9.16248 6.25143 9.76628C6.25143 10.3701 6.74084 10.8595 7.34464 10.8595H24.4721V18.5122C24.4721 19.1161 24.9616 19.6054 25.5654 19.6054H34.0675L35.6597 21.6563V27.2946H32.635C32.0311 27.2946 31.5418 27.784 31.5418 28.3878C31.5418 28.9917 32.0312 29.481 32.635 29.481H36.7529C37.3567 29.481 37.8461 28.9916 37.8462 28.3878V21.2818C37.8462 21.0391 37.7653 20.803 37.6166 20.6113Z" fill="white"/>
    <path d="M11.0617 21.7556H6.0327C5.42884 21.7556 4.93949 22.245 4.93949 22.8488C4.93949 23.4527 5.42891 23.942 6.0327 23.942H11.0616C11.6655 23.942 12.1548 23.4526 12.1548 22.8488C12.1549 22.245 11.6655 21.7556 11.0617 21.7556Z" fill="white"/>
    <path d="M13.5761 17.4554H4.24706C3.64327 17.4554 3.15385 17.9449 3.15385 18.5487C3.15385 19.1526 3.64327 19.6419 4.24706 19.6419H13.5761C14.18 19.6419 14.6693 19.1525 14.6693 18.5487C14.6693 17.9449 14.18 17.4554 13.5761 17.4554Z" fill="white"/>
    <path d="M15.3617 13.1554H6.0327C5.42884 13.1554 4.93949 13.6448 4.93949 14.2486C4.93949 14.8524 5.42891 15.3418 6.0327 15.3418H15.3617C15.9656 15.3418 16.455 14.8524 16.455 14.2486C16.455 13.6448 15.9656 13.1554 15.3617 13.1554Z" fill="white"/>
  </symbol>

  <symbol id="perfect-fit" viewBox="0 0 68 68">
    <path d="M53.8359 60.0312H47.8594V55.7812H50.5223C51.6225 55.7812 52.5145 54.8893 52.5145 53.7891C52.5145 52.6888 51.6225 51.7969 50.5223 51.7969H47.8594V47.8125H53.1785C54.2787 47.8125 55.1707 46.9205 55.1707 45.8203C55.1707 44.7201 54.2787 43.8281 53.1785 43.8281H47.8594V39.8438H50.5223C51.6225 39.8438 52.5145 38.9518 52.5145 37.8516C52.5145 36.7513 51.6225 35.8594 50.5223 35.8594H47.8594V31.875H53.1785C54.2787 31.875 55.1707 30.983 55.1707 29.8828C55.1707 28.7826 54.2787 27.8906 53.1785 27.8906H47.8594V23.9062H50.5223C51.6225 23.9062 52.5145 23.0143 52.5145 21.9141C52.5145 20.8138 51.6225 19.9219 50.5223 19.9219H47.8594V15.9375H53.1785C54.2787 15.9375 55.1707 15.0455 55.1707 13.9453C55.1707 12.8451 54.2787 11.9531 53.1785 11.9531H47.8594V7.96875H50.5223C51.6225 7.96875 52.5145 7.07678 52.5145 5.97656C52.5145 4.87634 51.6225 3.98438 50.5223 3.98438H47.8594V1.99219C47.8594 0.891969 46.9674 0 45.8672 0C44.767 0 43.875 0.891969 43.875 1.99219V60.0312H36.6821L37.7778 42.5H37.9051C39.0053 42.5 39.8973 41.608 39.8973 40.5078V27.2232C39.8973 22.8007 36.9982 19.0441 33.0014 17.7493C34.7475 16.7048 35.9195 14.7956 35.9195 12.6172C35.9195 9.32171 33.2384 6.64062 29.943 6.64062C26.6475 6.64062 23.9664 9.32171 23.9664 12.6172C23.9664 14.7946 25.1373 16.703 26.882 17.7479C22.8831 19.0415 19.982 22.7991 19.982 27.2232V40.5078C19.982 41.608 20.874 42.5 21.9742 42.5H22.0948L23.1905 60.0312H13.9922C12.892 60.0312 12 60.9232 12 62.0234V66.0078C12 67.108 12.892 68 13.9922 68C15.0924 68 15.9844 67.108 15.9844 66.0078V64.0156H51.8438V66.0078C51.8438 67.108 52.7357 68 53.8359 68C54.9362 68 55.8281 67.108 55.8281 66.0078V62.0234C55.8281 60.9232 54.9362 60.0312 53.8359 60.0312ZM29.943 10.625C31.0415 10.625 31.9352 11.5187 31.9352 12.6172C31.9352 13.7157 31.0415 14.6094 29.943 14.6094C28.8445 14.6094 27.9508 13.7157 27.9508 12.6172C27.9508 11.5187 28.8443 10.625 29.943 10.625ZM23.9664 27.2232C23.9664 23.9296 26.646 21.25 29.9398 21.25C33.2334 21.25 35.913 23.9296 35.913 27.2232V38.5156H23.9664V27.2232ZM26.0869 42.5H33.7856L32.6899 60.0312H27.1826L26.0869 42.5Z" fill="black"/>
  </symbol>

  <symbol id="strong" viewBox="0 0 68 68">
   <path d="M35.875 32.1811V21.8166H40.025C49.9181 21.8166 57.9666 13.768 57.9666 3.875C57.9666 2.8395 57.1271 2 56.0916 2H50.0646C43.0369 2 36.9411 6.06275 33.9996 11.9622C31.0576 6.06262 24.9615 2 17.9334 2H11.9084C10.8729 2 10.0334 2.8395 10.0334 3.875C10.0334 13.7681 18.082 21.8166 27.975 21.8166H32.125V32.1811C15.3249 33.1521 2 47.0815 2 64.125C2 65.1605 2.8395 66 3.875 66H64.125C65.1605 66 66 65.1605 66 64.125C66 47.0815 52.6751 33.1521 35.875 32.1811ZM50.0646 5.75H54.0933C53.1726 12.692 47.2145 18.0666 40.025 18.0666H35.9981C36.9174 11.1243 42.8751 5.75 50.0646 5.75ZM27.975 18.0666C20.7854 18.0666 14.8272 12.692 13.9067 5.75H17.9334C25.123 5.75 31.0811 11.1246 32.0016 18.0666H27.975ZM5.8105 62.25C6.7385 47.9209 17.2449 40.245 24.0917 37.6657V42.3778C24.0917 42.9499 23.8689 43.4879 23.4641 43.8926L17.4391 49.9176C15.1423 52.2145 15.1423 55.9519 17.4391 58.2487L21.44 62.25H5.8105ZM26.7434 62.25L20.0906 55.5973C19.2543 54.7609 19.2534 53.4065 20.0906 52.5692L26.1156 46.5444C27.2288 45.4314 27.8417 43.9516 27.8417 42.3778V36.5489C29.8536 36.1014 31.9191 35.875 34 35.875C38.9144 35.875 43.6772 37.1336 47.9062 39.5337L37.5223 49.9178C35.2226 52.2174 35.2178 55.9449 37.5223 58.2489L41.5234 62.25H26.7434ZM46.8266 62.25L40.1739 55.5971C39.3382 54.7616 39.3371 53.4062 40.1739 52.5692L51.1001 41.6431C57.6121 46.6034 61.6477 54.1131 62.1879 62.2499H46.8266V62.25Z" fill="black"/>
  </symbol>

  <symbol id="unique" viewBox="0 0 68 68">
    <path d="M67.58 64.7842C67.4752 64.6494 64.9503 61.4478 59.6006 58.2906C56.9903 56.75 53.3914 55.0512 48.7861 53.8092C49.7611 50.514 50.8711 45.7687 51.3499 40.1027C51.8914 33.6964 51.5072 27.4363 50.2076 21.4964C48.5791 14.0532 45.5041 7.10361 41.0679 0.840703C40.6944 0.313437 40.0884 0 39.4422 0C38.7961 0 38.1901 0.313305 37.8166 0.840703C36.4181 2.81509 35.155 4.85802 34.0297 6.96283C32.9044 4.85788 31.6415 2.81509 30.2428 0.840703C29.8694 0.313437 29.2633 0 28.6172 0C27.9711 0 27.3651 0.313305 26.9916 0.840703C22.5554 7.10348 19.4804 14.053 17.8518 21.4965C16.5523 27.4364 16.168 33.6964 16.7095 40.1029C17.2019 45.9283 18.3614 50.7807 19.3554 54.0843C15.1095 55.2884 11.6855 56.8436 9.12061 58.2632C3.46718 61.3926 0.622734 64.5502 0.504398 64.683C-0.0175553 65.2692 -0.146649 66.1072 0.174492 66.8232C0.495632 67.5391 1.20737 68 1.99216 68H66.0078C66.7688 68 67.4633 67.5664 67.7976 66.8828C68.1317 66.1992 68.0474 65.3849 67.58 64.7842ZM20.9628 26.9581L34.3264 17.8771C34.7222 19.1401 35.0719 20.4201 35.3722 21.7176L20.5296 31.8038C20.6034 30.2441 20.7425 28.6243 20.9628 26.9581ZM21.9738 21.4539C23.1906 16.3163 25.2642 10.9068 28.6188 5.57441C30.3273 8.279 31.7667 11.0904 32.9405 14.0015L21.9738 21.4539ZM20.4961 36.6438L36.179 25.9865C36.8241 30.3597 36.9548 34.9112 36.5666 39.6274C36.1538 44.6411 35.1975 48.9293 34.323 52.0159C30.2386 52.0394 26.5399 52.4701 23.2384 53.1424C22.2965 50.0504 21.1538 45.3767 20.6797 39.7673C20.5957 38.7749 20.5323 37.7314 20.4961 36.6438ZM34.6735 55.9971C45.4742 55.9971 52.9886 59.0514 57.3905 61.6136C58.8019 62.4352 59.9934 63.2602 60.9717 64.0156H7.43402C12.1776 60.6701 21.2129 55.9971 34.6735 55.9971ZM39.444 5.57441C45.7576 15.5693 48.4302 27.0098 47.3915 39.6274C46.9364 45.1541 45.8212 49.7995 44.8829 52.9247C42.8862 52.5547 40.7358 52.2795 38.4326 52.133C39.2726 48.9847 40.1222 44.8692 40.5251 40.1029C41.0665 33.6965 40.6823 27.4364 39.3827 21.4965C38.6317 18.0636 37.5721 14.7359 36.214 11.532C37.1285 9.54749 38.1975 7.55557 39.444 5.57441Z" fill="black"/>
  </symbol>  

  <symbol id="checkmark" width="10" height="8" viewBox="0 0 10 8">
   <path d="M9.44954 0.551587C8.80734 -0.184046 7.70642 -0.184046 7.06422 0.459633L3.66973 3.86193L2.93578 3.1263C2.29358 2.48262 1.19266 2.48262 0.550461 3.1263H0.458717C-0.183484 3.76998 -0.183484 4.87343 0.458717 5.5171L2.47707 7.54009C2.84404 7.90791 3.30275 7.99986 3.66973 7.99986C4.12844 7.99986 4.49542 7.81595 4.86239 7.54009L9.44954 2.94239C10.0917 2.29871 10.0917 1.19526 9.44954 0.551587Z" fill="#FEDB3F"/>
  </symbol>

  <symbol id="vk" viewBox="0 0 24 24">
    <g clip-path="url(#clip0_2_1215)">
      <path d="M23.8692 17.5259C23.8692 17.4605 23.8038 17.3951 23.8038 17.3951C23.4114 16.6757 22.5613 15.6948 21.3842 14.6485C20.861 14.1253 20.5341 13.7983 20.4033 13.6022C20.1417 13.2752 20.0763 12.9482 20.2071 12.6212C20.3379 12.3597 20.6649 11.8365 21.3188 10.9864C21.6458 10.5286 21.9074 10.2016 22.1035 9.94004C23.5422 8.04358 24.1962 6.80108 24 6.27792L23.9346 6.14712C23.8692 5.95094 23.7384 5.88554 23.5422 5.82015C23.3461 5.75475 23.0845 5.75475 22.7575 5.82015H19.1608C19.0954 5.82015 19.03 5.82015 18.8992 5.82015C18.7684 5.82015 18.7684 5.88554 18.7684 5.88554H18.703L18.6376 5.95094C18.5722 5.95094 18.5722 6.01633 18.5068 6.08173C18.4414 6.14713 18.4414 6.21252 18.376 6.27792C17.9837 7.25884 17.5259 8.23977 17.0681 9.0899C16.7411 9.61306 16.4796 10.0708 16.218 10.4632C15.9564 10.8556 15.7602 11.1172 15.564 11.3133C15.3678 11.5095 15.2371 11.6403 15.1063 11.7711C14.9755 11.9019 14.8447 11.9019 14.7793 11.9019C14.7139 11.9019 14.6485 11.8365 14.5831 11.8365C14.4523 11.7711 14.3869 11.6403 14.3215 11.5095C14.2561 11.3787 14.1907 11.2479 14.1907 11.0518C14.1907 10.8556 14.1253 10.6594 14.1253 10.5286C14.1253 10.3978 14.1253 10.2016 14.1253 9.94004C14.1253 9.67846 14.1253 9.48227 14.1253 9.41688C14.1253 9.0899 14.1253 8.76293 14.1253 8.37056C14.1253 7.97819 14.1253 7.71661 14.1253 7.52042C14.1253 7.32424 14.1253 7.06266 14.1253 6.80108C14.1253 6.5395 14.1253 6.34331 14.0599 6.21252C14.0599 6.08173 13.9946 5.95094 13.9292 5.82015C13.8638 5.68936 13.7984 5.55857 13.6676 5.49317C13.5368 5.42778 13.406 5.36238 13.2752 5.29699C12.8174 5.1662 12.2943 5.1662 11.5749 5.1662C10.0055 5.1662 9.02452 5.23159 8.56676 5.49317C8.37057 5.55857 8.23978 5.68936 8.10899 5.88554C7.9782 6.08173 7.91281 6.14712 8.0436 6.21252C8.56676 6.27792 8.89373 6.4741 9.08992 6.73568L9.15531 6.86647C9.22071 6.99726 9.2861 7.19345 9.3515 7.45503C9.41689 7.71661 9.41689 8.04358 9.48229 8.37056C9.54768 8.95911 9.54768 9.48227 9.48229 9.94004C9.41689 10.3978 9.41689 10.7248 9.3515 10.921C9.2861 11.1825 9.2861 11.3787 9.15531 11.5095C9.08992 11.6403 9.02452 11.7711 9.02452 11.7711C9.02452 11.8365 8.95913 11.8365 8.95913 11.8365C8.82834 11.9019 8.76294 11.9019 8.63215 11.9019C8.50136 11.9019 8.37057 11.8365 8.23978 11.7057C8.0436 11.5749 7.91281 11.4441 7.71662 11.2479C7.52044 11.0518 7.32425 10.7902 7.12807 10.3978C6.93188 10.0054 6.6703 9.61306 6.40872 9.0899L6.21253 8.69753C6.08174 8.43595 5.88556 8.10898 5.68937 7.65121C5.49319 7.19345 5.297 6.80108 5.10082 6.34331C5.03542 6.21252 4.90463 6.08173 4.77384 5.95094H4.70845C4.64305 5.88554 4.57766 5.88554 4.51226 5.82015C4.44687 5.82015 4.31608 5.75475 4.25068 5.75475H0.850136C0.457766 5.75475 0.196185 5.88554 0.0653951 6.01633V6.08173C0 6.14713 0 6.21252 0 6.27792C0 6.34331 0 6.4741 0.0653951 6.60489C0.588556 7.782 1.11172 8.89372 1.70027 10.0054C2.28883 11.1172 2.81199 11.9673 3.20436 12.6212C3.66213 13.2752 4.0545 13.9291 4.51226 14.5177C4.97003 15.1063 5.23161 15.4986 5.42779 15.6294C5.55858 15.8256 5.68937 15.891 5.75477 16.0218L6.08174 16.3488C6.27793 16.5449 6.60491 16.8065 6.93188 17.0681C7.32425 17.3297 7.71662 17.5913 8.23978 17.9182C8.69755 18.1798 9.2861 18.4414 9.87466 18.5722C10.5286 18.7684 11.1172 18.8338 11.7057 18.7684H13.1444C13.406 18.7684 13.6676 18.6376 13.7984 18.5068L13.8638 18.4414C13.9292 18.376 13.9292 18.3106 13.9292 18.1798C13.9292 18.049 13.9946 17.9836 13.9946 17.8528C13.9946 17.5259 13.9946 17.1989 14.0599 16.8719C14.1253 16.6103 14.1907 16.3488 14.2561 16.218C14.3215 16.0872 14.4523 15.9564 14.5177 15.8256C14.6485 15.6948 14.7139 15.6948 14.7139 15.6294C14.7793 15.6294 14.7793 15.564 14.8447 15.564C15.0409 15.4986 15.3025 15.564 15.564 15.7602C15.8256 15.9564 16.0872 16.218 16.3488 16.4795C16.6104 16.7411 16.8719 17.0681 17.1989 17.4605C17.5259 17.7875 17.8529 18.1144 18.049 18.2452L18.3106 18.376C18.5068 18.5068 18.703 18.5722 18.9646 18.6376C19.2262 18.703 19.4877 18.7684 19.6839 18.703L22.8883 18.6376C23.2153 18.6376 23.4768 18.5722 23.6076 18.5068C23.8038 18.376 23.8692 18.3106 23.9346 18.1798C24 18.049 24 17.9182 23.9346 17.7221C23.9346 17.7221 23.9346 17.5913 23.8692 17.5259Z" />
    </g>
    <defs>
      <clipPath id="clip0_2_1215">
        <rect width="24" height="24" />
      </clipPath>
    </defs>
  </symbol>

  <symbol id="fb" viewBox="0 0 24 24">
    <path d="M24 22.6921C24 23.4114 23.4114 24 22.6921 24H16.545V14.7139H19.6839L20.1417 11.1172H16.545V8.82834C16.545 7.78202 16.8065 7.06267 18.3106 7.06267H20.2071V3.79292C19.8801 3.72752 18.7684 3.66213 17.3951 3.66213C14.6485 3.66213 12.752 5.3624 12.752 8.43597V11.1172H9.61308V14.7139H12.752V24H1.3079C0.588556 24 0 23.4114 0 22.6921V1.3079C0 0.588556 0.588556 0 1.3079 0H22.6921C23.4114 0 24 0.588556 24 1.3079V22.6921Z" />
  </symbol>

  <symbol id="inst" viewBox="0 0 24 24">
    <path d="M21.1226 0H2.87738C1.3079 0 0 1.24251 0 2.81199V21.188C0 22.7575 1.3079 24 2.87738 24H21.1226C22.6921 24 24 22.7575 24 21.188V2.81199C24 1.24251 22.6921 0 21.1226 0ZM17.2643 3.72752C17.2643 3.33515 17.5913 3.00817 17.9837 3.00817H20.2725C20.6648 3.00817 20.9918 3.33515 20.9918 3.72752V5.95095C20.9918 6.34332 20.6648 6.6703 20.2725 6.6703H18.049C17.6567 6.6703 17.3297 6.34332 17.3297 5.95095L17.2643 3.72752ZM12.0327 7.38965C14.5831 7.38965 16.6757 9.41689 16.6757 11.9673C16.6757 14.5177 14.5831 16.545 12.0327 16.545C9.48229 16.545 7.38965 14.5177 7.38965 11.9673C7.38965 9.48229 9.48229 7.38965 12.0327 7.38965ZM21.7112 20.9918C21.7112 21.3842 21.3842 21.7112 20.9918 21.7112H3.00817C2.6158 21.7112 2.28883 21.3842 2.28883 20.9918V9.74387H5.23161C4.83924 10.3324 4.70845 11.3787 4.70845 12.0327C4.70845 16.0218 7.9782 19.2916 12.0327 19.2916C16.0872 19.2916 19.3569 16.0218 19.3569 12.0327C19.3569 11.3787 19.2916 10.3324 18.7684 9.74387H21.7766L21.7112 20.9918Z" />
  </symbol>

  <symbol id="tw" viewBox="0 0 24 24">
    <g clip-path="url(#clip0_2_1214)">
      <path d="M23.346 2.41963C22.3651 3.00818 21.3188 3.40055 20.2071 3.66213C19.2916 2.68121 18.049 2.09265 16.6104 2.09265C13.8638 2.09265 11.7057 4.38148 11.7057 7.12807C11.7057 7.52044 11.7711 7.91281 11.8365 8.30519C7.71662 8.0436 4.11989 6.01636 1.70027 2.94279C1.3079 3.66213 1.04632 4.57766 1.04632 5.4932C1.04632 7.25886 1.89646 8.76295 3.26975 9.67848C2.48501 9.67848 1.70027 9.4169 1.04632 9.02453V9.15532C1.04632 11.5749 2.74659 13.6676 4.97003 14.1253C4.57766 14.2561 4.11989 14.3215 3.66213 14.3215C3.33515 14.3215 3.00817 14.3215 2.74659 14.2561C3.40054 16.2834 5.16621 17.7221 7.32425 17.7875C5.62398 19.1608 3.53133 19.9455 1.17711 19.9455C0.784741 19.9455 0.392371 19.9455 0 19.8801C2.15804 21.3188 4.77384 22.1689 7.52044 22.1689C16.6104 22.1689 21.515 14.4523 21.515 7.78202C21.515 7.58584 21.515 7.32426 21.515 7.12807C22.4959 6.40873 23.346 5.55859 24 4.51227C23.1499 4.90464 22.1689 5.16622 21.188 5.29701C22.1689 4.57767 22.9537 3.59674 23.346 2.41963Z" />
    </g>
    <defs>
      <clipPath id="clip0_2_1214">
        <rect width="24" height="24"/>
      </clipPath>
    </defs>
  </symbol>

  <symbol id="product-values" viewBox="0 0 91 91">
    <rect width="91" height="91" rx="4" fill="#3A587E"/>
      <path d="M15.2252 72.1415L15.2953 75H13.4036L13.4877 72.3097L13.4176 67.4475H10.1668L10.0968 72.1415L10.1668 75H8.27521L8.35929 72.3097L8.27521 65.9762H15.3233L15.2252 72.1415ZM24.7654 75H22.8317L22.6075 73.823L22.3693 72.9823L20.6038 72.9402L19.0484 72.9823L18.8102 73.7249L18.572 75H16.6944L19.749 65.9762H22.005L24.7654 75ZM21.9629 71.511L20.898 67.7558H20.7719L19.5388 71.511L20.7439 71.539L21.9629 71.511ZM29.6481 65.9622C30.5916 65.9622 31.3156 66.2004 31.82 66.6768C32.3338 67.1532 32.5907 67.8352 32.5907 68.7226C32.5907 69.4045 32.4412 70.0024 32.1423 70.5161C31.8433 71.0206 31.4136 71.4129 30.8532 71.6931C30.302 71.9734 29.6528 72.1135 28.9055 72.1135H28.0087V72.1415L28.0928 75H26.1871L26.2852 72.3097L26.1871 65.9762L29.6481 65.9622ZM29.3258 70.7263C30.1853 70.4834 30.615 69.8716 30.615 68.8907C30.615 68.3863 30.4842 68.0126 30.2226 67.7698C29.9704 67.5175 29.5781 67.3821 29.0456 67.3634L28.0928 67.4195L28.0367 70.6703L29.3258 70.7263ZM40.4605 75H38.5269L38.3027 73.823L38.0645 72.9823L36.2989 72.9402L34.7436 72.9823L34.5054 73.7249L34.2672 75H32.3896L35.4442 65.9762H37.7001L40.4605 75ZM37.6581 71.511L36.5932 67.7558H36.4671L35.234 71.511L36.4391 71.539L37.6581 71.511ZM51.3545 75H49.673L49.5329 72.2676L49.2106 68.7926H49.0705L47.0528 74.0472H45.5815L43.7459 68.7926H43.6198L43.2695 72.0855L43.0733 75H41.476L42.3867 65.9762H44.5726L44.9369 67.3074L46.3662 71.5811H46.4923L47.9916 67.3074L48.3979 65.9762H50.5418L51.3545 75ZM59.0515 73.4306L59.1636 73.5848L59.0375 75H53.3766L53.4747 72.3097L53.3766 65.9762H59.0935L59.2056 66.1304L59.0655 67.5456L56.9076 67.4755L55.2822 67.4895L55.2402 69.6614L56.7955 69.6894L58.2668 69.6474L58.3789 69.7875L58.2528 71.2027L56.6554 71.1607L55.2122 71.1747L55.1982 72.1415L55.2402 73.5007L56.8236 73.5147L59.0515 73.4306ZM66.6029 66.1304L66.4908 67.5456L64.7953 67.4615H64.2349L64.1648 72.1415L64.2489 75H62.3432L62.4413 72.3097L62.3713 67.4615H61.8108L60.0873 67.5456L59.9612 67.3914L60.0873 65.9762H66.4908L66.6029 66.1304ZM71.356 65.9622C72.2994 65.9622 73.0234 66.2004 73.5278 66.6768C74.0416 67.1532 74.2985 67.8352 74.2985 68.7226C74.2985 69.4045 74.149 70.0024 73.8501 70.5161C73.5512 71.0206 73.1215 71.4129 72.561 71.6931C72.0098 71.9734 71.3606 72.1135 70.6133 72.1135H69.7165V72.1415L69.8006 75H67.895L67.9931 72.3097L67.895 65.9762L71.356 65.9622ZM71.0337 70.7263C71.8931 70.4834 72.3228 69.8716 72.3228 68.8907C72.3228 68.3863 72.192 68.0126 71.9304 67.7698C71.6782 67.5175 71.2859 67.3821 70.7534 67.3634L69.8006 67.4195L69.7446 70.6703L71.0337 70.7263ZM79.1517 69.4372C79.9924 69.4372 80.637 69.6521 81.0854 70.0818C81.5338 70.5021 81.7579 71.1093 81.7579 71.9033C81.7579 72.8748 81.4357 73.6362 80.7911 74.1873C80.1466 74.7291 79.2498 75 78.1008 75H75.6066L75.7047 72.3237L75.6066 65.9762H77.5263L77.4702 69.4372H79.1517ZM84.6304 72.1415L84.7145 75H82.8088L82.9069 72.3097L82.8088 65.9762H84.7425L84.6304 72.1415ZM78.6052 73.6829C78.9882 73.6081 79.2825 73.44 79.488 73.1784C79.6935 72.9075 79.7963 72.5666 79.7963 72.1555C79.7963 71.7165 79.6842 71.3802 79.46 71.1467C79.2451 70.9038 78.9322 70.7824 78.5212 70.7824L77.4562 70.8104L77.4282 72.1415L77.4702 73.6268L78.6052 73.6829Z" fill="white"/>
      <g clip-path="url(#clip0_2_30)">
        <path d="M45.2132 17.3261L38.5439 23.9954C38.1091 24.4301 38.1091 25.1351 38.5439 25.5698L41.693 28.7189C41.9565 28.9824 42.3191 29.0865 42.6606 29.0304V32.6602H39.0307C39.088 32.3124 38.9769 31.9502 38.7194 31.6927L35.5703 28.5436C35.1359 28.1091 34.4306 28.1088 33.9959 28.5436L27.3266 35.2128C26.8918 35.6475 26.8918 36.3525 27.3266 36.7873L33.9959 43.4565C34.4303 43.891 35.1356 43.8913 35.5703 43.4565L38.7194 40.3074C38.9771 40.0497 39.0879 39.6874 39.0307 39.3399H42.6605V42.9697C42.3191 42.9136 41.9563 43.0177 41.6929 43.2811L38.5438 46.4302C38.1091 46.8649 38.1091 47.5698 38.5438 48.0046L45.2131 54.6739C45.6479 55.1087 46.3528 55.1087 46.7875 54.6739L53.4568 48.0046C53.8912 47.5701 53.8916 46.8649 53.4568 46.4302L50.3077 43.2811C50.0443 43.0177 49.6816 42.9136 49.3402 42.9697V39.3399H52.9701C52.9128 39.6878 53.0239 40.05 53.2815 40.3074L56.4306 43.4566C56.865 43.8911 57.5703 43.8914 58.005 43.4566L64.6743 36.7873C65.109 36.3526 65.109 35.6477 64.6743 35.2129L58.005 28.5436C57.5706 28.1091 56.8653 28.1089 56.4306 28.5436L53.2815 31.6928C53.0237 31.9505 52.9129 32.3128 52.9701 32.6603H49.3402V29.0305C49.6816 29.0865 50.0443 28.9825 50.3077 28.7191L53.4568 25.57C53.8914 25.1355 53.8915 24.4303 53.4568 23.9956L46.7875 17.3263C46.3528 16.8914 45.6479 16.8914 45.2132 17.3261V17.3261ZM49.5206 26.3574L49.0142 25.851C48.3157 25.1523 47.1137 25.6469 47.1137 26.6381V33.7735C47.1137 34.3884 47.6121 34.8868 48.2269 34.8868H55.3623C56.3507 34.8868 56.8502 33.687 56.1495 32.9864L55.6431 32.48L57.2178 30.9052L62.3127 36.0001L57.2179 41.0951L55.6432 39.5203L56.1496 39.0139C56.8484 38.315 56.3532 37.1134 55.3623 37.1134H48.2269C47.6121 37.1134 47.1137 37.6118 47.1137 38.2267V45.362C47.1137 46.3538 48.3161 46.8474 49.0141 46.1492L49.5205 45.6428L51.0952 47.2175L46.0004 52.3124L40.9056 47.2174L42.4802 45.6427L42.9867 46.1491C43.6853 46.848 44.8871 46.3529 44.8871 45.362V38.2267C44.8871 37.6118 44.3886 37.1134 43.7738 37.1134H36.6384C35.6501 37.1134 35.1506 38.3132 35.8513 39.0138L36.3577 39.5202L34.783 41.095L29.6881 36.0001L34.7829 30.9051L36.3576 32.4799L35.8512 32.9863C35.1523 33.6852 35.6475 34.8868 36.6384 34.8868H43.7738C44.3886 34.8868 44.8871 34.3884 44.8871 33.7735V26.6381C44.8871 25.6502 43.6874 25.1502 42.9867 25.851L42.4802 26.3574L40.9056 24.7827L46.0004 19.6877L51.0952 24.7827L49.5206 26.3574Z" fill="white"/>
      </g>
      <defs>
       <clipPath id="clip0_2_30">
        <rect width="38" height="38" fill="white" transform="translate(27 17)"/>
      </clipPath>
      </defs>
  </symbol>  

  <!-- <symbol id="arrow-left" width="15" height="29" viewBox="0 0 15 29">
    <path d="M14 28L1.91422 15.9142C1.13317 15.1332 1.13317 13.8668 1.91421 13.0858L14 1" stroke="black" stroke-width="2" stroke-linecap="round"/>
  </symbol>

  <symbol id="arrow-right" width="15" height="29" viewBox="0 0 15 29">
    <path d="M1 1L13.0858 13.0858C13.8668 13.8668 13.8668 15.1332 13.0858 15.9142L1 28" stroke="black" stroke-width="2" stroke-linecap="round"/>
  </symbol> -->

  <symbol id="lenght" viewBox="0 0 24 15">
    <path d="M7.00642 4.09528L7.00723 0L0 7.00964L7.00723 14.0185L7.00642 9.9232L16.992 9.92481V14.0185L24 7.00964L16.992 0V4.09528H7.00642Z" fill="#010002"/>
  </symbol>

  <symbol id="width" viewBox="0 0 18 18">
    <path d="M3.4085 10.4797L0.51327 7.58335L0.514976 17.4948L10.4258 17.4959L7.52946 14.6007L14.5914 7.54097L17.4861 10.4356L17.4855 0.524211L7.57354 0.523074L10.4693 3.41887L3.4085 10.4797Z" fill="#010002"/>
  </symbol>

  <symbol id="thickness" viewBox="0 0 24 24">
    <path d="M22.5938 5.48438H1.45312C0.6765 5.48438 0.046875 6.114 0.046875 6.89062C0.046875 7.66725 0.6765 8.29688 1.45312 8.29688H22.5938C23.3704 8.29688 24 7.66725 24 6.89062C24 6.114 23.3704 5.48438 22.5938 5.48438Z" fill="black"/>
    <path d="M23.0625 0H0.9375C0.419719 0 0 0.419719 0 0.9375C0 1.45528 0.419719 1.875 0.9375 1.875H23.0625C23.5803 1.875 24 1.45528 24 0.9375C24 0.419719 23.5803 0 23.0625 0Z" fill="black"/>
    <path d="M21.6562 19.3125H2.39062C1.09622 19.3125 0.046875 20.3618 0.046875 21.6562C0.046875 22.9507 1.09622 24 2.39062 24H21.6562C22.9507 24 24 22.9507 24 21.6562C24 20.3618 22.9507 19.3125 21.6562 19.3125Z" fill="black"/>
    <path d="M22.125 11.9062H1.92188C0.886359 11.9062 0.046875 12.7457 0.046875 13.7812C0.046875 14.8168 0.886359 15.6562 1.92188 15.6562H22.125C23.1605 15.6562 24 14.8168 24 13.7812C24 12.7457 23.1605 11.9062 22.125 11.9062Z" fill="black"/>
  </symbol>

  <symbol id="vector" viewBox="0 0 18 24">
    <path d="M17 22H16V18.727C16 17.099 15.307 15.541 14.097 14.453L12.404 12.93C12.137 12.689 11.99 12.359 11.99 12C11.99 11.641 12.137 11.311 12.404 11.071L14.097 9.548C15.307 8.458 16 6.901 16 5.273V2H17C17.553 2 18 1.552 18 1C18 0.448 17.553 0 17 0H1C0.447 0 0 0.448 0 1C0 1.552 0.447 2 1 2H2V5.273C2 6.901 2.693 8.459 3.903 9.547L5.596 11.07C5.863 11.311 6.01 11.641 6.01 12C6.01 12.359 5.863 12.689 5.596 12.929L3.903 14.452C2.693 15.542 2 17.099 2 18.727V22H1C0.447 22 0 22.448 0 23C0 23.552 0.447 24 1 24H17C17.553 24 18 23.552 18 23C18 22.448 17.553 22 17 22ZM5 18.829C5 18.094 5.286 17.404 5.806 16.884L8.47 14.22C8.763 13.927 9.238 13.927 9.531 14.22L12.195 16.884C12.715 17.404 13.001 18.094 13.001 18.829V22H5V18.829Z" fill="black"/>
  </symbol>

  <symbol id="weight" viewBox="0 0 24 24">
    <path d="M22.983 21.137L20.8878 8.62074C20.6908 7.4406 19.6687 6.57811 18.4724 6.57811H15.3245C15.6937 5.93501 15.9047 5.19002 15.9047 4.39667C15.9047 1.97245 13.9328 0 11.5081 0C9.08383 0 7.11138 1.97245 7.11138 4.39667C7.11138 5.19002 7.32246 5.93501 7.69158 6.57811H4.54367C3.34689 6.57811 2.32532 7.44164 2.12828 8.62178L0.0336613 21.1396C-0.0853925 21.8492 0.114764 22.5797 0.580061 23.1287C1.04588 23.6782 1.72901 24 2.44957 24H20.5686C21.2892 24 21.9723 23.6782 22.4381 23.1287C22.9029 22.5786 23.1025 21.8472 22.983 21.137ZM11.5086 2.56148C12.5203 2.56148 13.3438 3.38498 13.3438 4.39719C13.3438 5.40941 12.5203 6.23239 11.5086 6.23239C10.4964 6.23239 9.67286 5.40889 9.67286 4.39667C9.67286 3.38446 10.4964 2.56148 11.5086 2.56148Z" fill="black"/>
  </symbol>

  <symbol id="close" width="20" height="20" viewBox="0 0 20 20" fill="none" xmlns="http://www.w3.org/2000/svg">
    <path d="M13.5556 10L19.3333 4.22222C20.2222 3.33333 20.2222 2 19.3333 1.22222L18.8889 0.777778C18 -0.111111 16.6667 -0.111111 15.8889 0.777778L10 6.44444L4.22222 0.666667C3.33333 -0.222222 2 -0.222222 1.11111 0.666667L0.666667 1.11111C-0.222222 2 -0.222222 3.33333 0.666667 4.11111L6.44444 10L0.666667 15.7778C-0.222222 16.6667 -0.222222 18 0.666667 18.7778L1.11111 19.3333C2 20.2222 3.33333 20.2222 4.11111 19.3333L10 13.5556L15.7778 19.3333C16.6667 20.2222 18 20.2222 18.7778 19.3333L19.2222 18.8889C20.1111 18 20.1111 16.6667 19.2222 15.8889L13.5556 10Z" fill="white"/>
  </symbol>


</svg>
